<?xml version="1.0" encoding="UTF-8"?>
<!DOCTYPE svg PUBLIC "-//W3C//DTD SVG 1.1//EN" "http://www.w3.org/Graphics/SVG/1.1/DTD/svg11.dtd">
<svg xmlns="http://www.w3.org/2000/svg" version="1.1" width="92px" height="110px" style="shape-rendering:geometricPrecision; text-rendering:geometricPrecision; image-rendering:optimizeQuality; fill-rule:evenodd; clip-rule:evenodd" xmlns:xlink="http://www.w3.org/1999/xlink">
<g><path style="opacity:0.82" fill="#85ade8" d="M 79.5,5.5 C 74.8333,5.5 70.1667,5.5 65.5,5.5C 65.6621,7.5273 65.4955,9.5273 65,11.5C 64.6174,12.056 64.1174,12.3893 63.5,12.5C 63.6219,9.01261 64.7886,6.01261 67,3.5C 69.2591,4.53565 71.5925,4.53565 74,3.5C 76.1114,3.70065 77.9448,4.36731 79.5,5.5 Z"/></g>
<g><path style="opacity:0.99" fill="#fafbfd" d="M 81.5,13.5 C 81.8809,31.4989 82.2142,49.4989 82.5,67.5C 81.1667,67.5 79.8333,67.5 78.5,67.5C 78.5,68.8333 78.5,70.1667 78.5,71.5C 79.8333,71.5 81.1667,71.5 82.5,71.5C 82.5,72.8333 82.5,74.1667 82.5,75.5C 82.6664,83.1739 82.4997,90.8406 82,98.5C 81.2828,99.0442 80.7828,99.7109 80.5,100.5C 77.031,101.7 73.6977,101.7 70.5,100.5C 70.1928,95.1941 67.5262,91.8608 62.5,90.5C 58.9351,89.2134 55.2684,89.2134 51.5,90.5C 47.6601,93.1808 45.6601,96.8475 45.5,101.5C 42.4816,101.665 39.4816,101.498 36.5,101C 34.6498,100.31 33.3164,99.1436 32.5,97.5C 32.5,96.8333 32.5,96.1667 32.5,95.5C 32.5,87.8333 32.5,80.1667 32.5,72.5C 34.6348,72.853 35.9681,72.0197 36.5,70C 36.1639,68.9701 35.4972,68.4701 34.5,68.5C 33.5,68.5 32.5,68.5 31.5,68.5C 31.5,50.1667 31.5,31.8333 31.5,13.5C 31.8333,12.8333 32.1667,12.1667 32.5,11.5C 35.8462,9.67636 39.5128,9.00969 43.5,9.5C 43.7936,12.7541 45.127,15.4208 47.5,17.5C 48.343,19.1733 49.6763,20.34 51.5,21C 62.0376,23.0905 67.7042,18.9239 68.5,8.5C 74.2195,7.23288 78.5528,8.89955 81.5,13.5 Z M 49.5,36.5 C 50.9349,37.9848 50.7683,39.3181 49,40.5C 48.5357,39.9056 48.369,39.2389 48.5,38.5C 48.3284,37.5084 48.6618,36.8417 49.5,36.5 Z M 44.5,41.5 C 46.0847,42.0024 46.5847,43.0024 46,44.5C 44.9614,43.7562 44.4614,42.7562 44.5,41.5 Z"/></g>
<g><path style="opacity:1" fill="#6891ea" d="M 53.5,16.5 C 53.5,16.8333 53.5,17.1667 53.5,17.5C 51.0069,17.0238 49.0069,15.6904 47.5,13.5C 46.7084,14.6998 46.7084,16.0331 47.5,17.5C 45.127,15.4208 43.7936,12.7541 43.5,9.5C 39.5128,9.00969 35.8462,9.67636 32.5,11.5C 32.6309,10.6236 32.2975,9.95689 31.5,9.5C 30.5832,10.1272 29.5832,10.4606 28.5,10.5C 29.3534,7.48213 31.3534,5.6488 34.5,5C 38.8333,4.33333 43.1667,4.33333 47.5,5C 47.5549,9.94639 49.5549,13.7797 53.5,16.5 Z"/></g>
<g><path style="opacity:1" fill="#307afa" d="M 43.5,9.5 C 40.3107,8.83387 36.9773,8.1672 33.5,7.5C 37.7828,6.50776 42.1161,6.17443 46.5,6.5C 46.6567,7.87344 46.49,9.20677 46,10.5C 45.3292,9.74756 44.4959,9.41423 43.5,9.5 Z"/></g>
<g><path style="opacity:1" fill="#7ea3ee" d="M 28.5,10.5 C 28.7135,12.1439 28.3802,13.6439 27.5,15C 24.5775,16.6029 21.5775,17.7696 18.5,18.5C 17.1667,18.5 15.8333,18.5 14.5,18.5C 18.0264,16.9284 21.693,15.4284 25.5,14C 26.6364,12.8549 27.6364,11.6883 28.5,10.5 Z"/></g>
<g><path style="opacity:0.987" fill="#fbfdff" d="M 24.5,19.5 C 24.8333,19.5 25.1667,19.5 25.5,19.5C 26.1667,29.5 26.8333,39.5 27.5,49.5C 27.8276,60.0135 27.4942,70.3468 26.5,80.5C 21.2243,65.6714 15.5576,51.0047 9.5,36.5C 9.3404,34.847 8.67373,33.5137 7.5,32.5C 6.98617,30.4884 6.8195,28.4884 7,26.5C 9.87588,25.0522 12.7092,23.7189 15.5,22.5C 18.659,21.6693 21.659,20.6693 24.5,19.5 Z"/></g>
<g><path style="opacity:1" fill="#5f8deb" d="M 14.5,18.5 C 15.8333,18.5 17.1667,18.5 18.5,18.5C 20.2646,19.4614 22.2646,19.7947 24.5,19.5C 21.659,20.6693 18.659,21.6693 15.5,22.5C 15.2089,21.3509 14.3756,20.6842 13,20.5C 9.88431,21.8118 6.71764,22.8118 3.5,23.5C 6.63236,20.8899 10.299,19.2233 14.5,18.5 Z"/></g>
<g><path style="opacity:1" fill="#417df0" d="M 15.5,22.5 C 12.7092,23.7189 9.87588,25.0522 7,26.5C 6.8195,28.4884 6.98617,30.4884 7.5,32.5C 6.71304,34.1042 5.3797,34.7709 3.5,34.5C 3.5,34.1667 3.5,33.8333 3.5,33.5C 3.5,30.1667 3.5,26.8333 3.5,23.5C 6.71764,22.8118 9.88431,21.8118 13,20.5C 14.3756,20.6842 15.2089,21.3509 15.5,22.5 Z"/></g>
<g><path style="opacity:1" fill="#80a4ee" d="M 3.5,23.5 C 3.5,26.8333 3.5,30.1667 3.5,33.5C 0.954389,30.1322 0.954389,26.7988 3.5,23.5 Z"/></g>
<g><path style="opacity:0.167" fill="#cae0ff" d="M 25.5,19.5 C 25.56,18.9569 25.8933,18.6236 26.5,18.5C 27.4892,22.1073 27.8226,25.774 27.5,29.5C 27.5,36.1667 27.5,42.8333 27.5,49.5C 26.8333,39.5 26.1667,29.5 25.5,19.5 Z"/></g>
<g><path style="opacity:1" fill="#799fec" d="M 7.5,32.5 C 8.67373,33.5137 9.3404,34.847 9.5,36.5C 7.87627,34.8632 6.87627,35.1966 6.5,37.5C 7.15558,39.4534 7.48891,41.4534 7.5,43.5C 5.92779,40.682 4.59446,37.682 3.5,34.5C 5.3797,34.7709 6.71304,34.1042 7.5,32.5 Z"/></g>
<g><path style="opacity:0.997" fill="#4d4d4d" d="M 44.5,41.5 C 43.8401,39.1843 43.1734,36.851 42.5,34.5C 42.8333,33.8333 43.1667,33.1667 43.5,32.5C 45.9725,33.9599 47.6391,35.9599 48.5,38.5C 48.369,39.2389 48.5357,39.9056 49,40.5C 50.7683,39.3181 50.9349,37.9848 49.5,36.5C 48.3565,33.4977 48.3565,30.4977 49.5,27.5C 52.2263,30.2859 53.893,33.6193 54.5,37.5C 54.5815,34.6669 54.7482,31.6669 55,28.5C 56.3333,25.8333 57.6667,25.8333 59,28.5C 59.1229,31.614 59.2896,34.614 59.5,37.5C 60.4113,33.7514 62.078,30.4181 64.5,27.5C 66.0191,31.6966 65.3524,35.5299 62.5,39C 63.0253,39.6924 63.6919,40.1924 64.5,40.5C 70.2879,28.2195 72.2879,28.5528 70.5,41.5C 71.7481,40.9598 72.9148,40.2931 74,39.5C 74.1667,40 74.3333,40.5 74.5,41C 72.7282,44.6016 70.3949,47.7682 67.5,50.5C 67.1918,53.7499 67.0252,57.0833 67,60.5C 64.7103,61.41 63.5437,60.41 63.5,57.5C 66.4934,53.3293 66.1601,49.496 62.5,46C 57.9617,43.6966 53.795,44.1966 50,47.5C 49.5367,52.2163 48.87,56.883 48,61.5C 46.861,57.7808 46.361,53.9475 46.5,50C 44.2281,47.9456 42.0615,45.779 40,43.5C 39.5172,42.552 39.3505,41.552 39.5,40.5C 41.2161,40.6287 42.8828,40.962 44.5,41.5 Z M 49.5,36.5 C 50.9349,37.9848 50.7683,39.3181 49,40.5C 48.5357,39.9056 48.369,39.2389 48.5,38.5C 48.3284,37.5084 48.6618,36.8417 49.5,36.5 Z M 44.5,41.5 C 44.4614,42.7562 44.9614,43.7562 46,44.5C 46.5847,43.0024 46.0847,42.0024 44.5,41.5 Z"/></g>
<g><path style="opacity:0.99" fill="#6397ed" d="M 27.5,29.5 C 28.4946,40.3206 28.8279,51.3206 28.5,62.5C 28.6663,69.5079 28.4996,76.5079 28,83.5C 27.4867,82.4734 26.9867,81.4734 26.5,80.5C 27.4942,70.3468 27.8276,60.0135 27.5,49.5C 27.5,42.8333 27.5,36.1667 27.5,29.5 Z"/></g>
<g><path style="opacity:1" fill="#4b83e6" d="M 81.5,13.5 C 83.4995,31.4777 83.8328,49.4777 82.5,67.5C 82.2142,49.4989 81.8809,31.4989 81.5,13.5 Z"/></g>
<g><path style="opacity:1" fill="#417dec" d="M 79.5,5.5 C 82.8486,6.68362 85.0153,9.01695 86,12.5C 86.4999,25.8292 86.6666,39.1625 86.5,52.5C 86.6666,66.504 86.4999,80.504 86,94.5C 85.7811,95.938 85.2811,97.2713 84.5,98.5C 83.8333,90.6771 83.1666,83.0104 82.5,75.5C 82.5,74.1667 82.5,72.8333 82.5,71.5C 81.1667,71.5 79.8333,71.5 78.5,71.5C 78.5,70.1667 78.5,68.8333 78.5,67.5C 79.8333,67.5 81.1667,67.5 82.5,67.5C 83.8328,49.4777 83.4995,31.4777 81.5,13.5C 78.5528,8.89955 74.2195,7.23288 68.5,8.5C 67.7042,18.9239 62.0376,23.0905 51.5,21C 49.6763,20.34 48.343,19.1733 47.5,17.5C 46.7084,16.0331 46.7084,14.6998 47.5,13.5C 49.0069,15.6904 51.0069,17.0238 53.5,17.5C 55.8568,17.6633 58.1902,17.4966 60.5,17C 61.056,16.6174 61.3893,16.1174 61.5,15.5C 61.9321,14.2905 62.5987,13.2905 63.5,12.5C 64.1174,12.3893 64.6174,12.056 65,11.5C 65.4955,9.5273 65.6621,7.5273 65.5,5.5C 70.1667,5.5 74.8333,5.5 79.5,5.5 Z"/></g>
<g><path style="opacity:1" fill="#a3c1f4" d="M 61.5,15.5 C 61.3893,16.1174 61.056,16.6174 60.5,17C 58.1902,17.4966 55.8568,17.6633 53.5,17.5C 53.5,17.1667 53.5,16.8333 53.5,16.5C 56.2372,16.5987 58.9039,16.2653 61.5,15.5 Z"/></g>
<g><path style="opacity:1" fill="#3079f6" d="M 32.5,11.5 C 32.1667,12.1667 31.8333,12.8333 31.5,13.5C 30.6683,31.9955 30.1683,50.6622 30,69.5C 29.8138,66.9644 29.3138,64.631 28.5,62.5C 28.8279,51.3206 28.4946,40.3206 27.5,29.5C 27.8226,25.774 27.4892,22.1073 26.5,18.5C 25.8933,18.6236 25.56,18.9569 25.5,19.5C 25.1667,19.5 24.8333,19.5 24.5,19.5C 22.2646,19.7947 20.2646,19.4614 18.5,18.5C 21.5775,17.7696 24.5775,16.6029 27.5,15C 28.3802,13.6439 28.7135,12.1439 28.5,10.5C 29.5832,10.4606 30.5832,10.1272 31.5,9.5C 32.2975,9.95689 32.6309,10.6236 32.5,11.5 Z"/></g>
<g><path style="opacity:1" fill="#83a6ec" d="M 14.5,61.5 C 16.335,62.1223 17.5017,63.4556 18,65.5C 19.7975,70.0231 20.9641,74.6898 21.5,79.5C 18.6537,73.7901 16.3204,67.7901 14.5,61.5 Z"/></g>
<g><path style="opacity:0.882" fill="#7aa3ec" d="M 71.5,68.5 C 68.5,68.5 65.5,68.5 62.5,68.5C 62.5,69.5 62.5,70.5 62.5,71.5C 65.1667,71.5 67.8333,71.5 70.5,71.5C 67.6965,72.6378 64.6965,72.8045 61.5,72C 60.1667,70.6667 60.1667,69.3333 61.5,68C 65.0267,67.1925 68.3601,67.3592 71.5,68.5 Z"/></g>
<g><path style="opacity:1" fill="#4c7fe9" d="M 43.5,68.5 C 46.8333,68.5 50.1667,68.5 53.5,68.5C 53.5,69.8333 53.5,71.1667 53.5,72.5C 50.1667,72.5 46.8333,72.5 43.5,72.5C 43.5,71.1667 43.5,69.8333 43.5,68.5 Z"/></g>
<g><path style="opacity:1" fill="#3878ef" d="M 71.5,68.5 C 71.7373,69.791 71.404,70.791 70.5,71.5C 67.8333,71.5 65.1667,71.5 62.5,71.5C 62.5,70.5 62.5,69.5 62.5,68.5C 65.5,68.5 68.5,68.5 71.5,68.5 Z"/></g>
<g><path style="opacity:0.945" fill="#678fd8" d="M 34.5,68.5 C 35.4972,68.4701 36.1639,68.9701 36.5,70C 35.9681,72.0197 34.6348,72.853 32.5,72.5C 33.8062,71.5326 34.4729,70.1993 34.5,68.5 Z"/></g>
<g><path style="opacity:1" fill="#4a82ec" d="M 31.5,13.5 C 31.5,31.8333 31.5,50.1667 31.5,68.5C 32.5,68.5 33.5,68.5 34.5,68.5C 34.4729,70.1993 33.8062,71.5326 32.5,72.5C 32.5,80.1667 32.5,87.8333 32.5,95.5C 31.6715,88.6787 31.1715,81.6787 31,74.5C 30.6667,73.8333 30.3333,73.1667 30,72.5C 29.5012,76.4862 29.3345,80.4862 29.5,84.5C 28.5,84.5 27.5,84.5 26.5,84.5C 26.5,85.8333 26.5,87.1667 26.5,88.5C 25.8571,86.9236 24.8571,85.5903 23.5,84.5C 22.4625,83.0697 21.7959,81.403 21.5,79.5C 20.9641,74.6898 19.7975,70.0231 18,65.5C 17.5017,63.4556 16.335,62.1223 14.5,61.5C 11.7759,55.6624 9.44252,49.6624 7.5,43.5C 7.48891,41.4534 7.15558,39.4534 6.5,37.5C 6.87627,35.1966 7.87627,34.8632 9.5,36.5C 15.5576,51.0047 21.2243,65.6714 26.5,80.5C 26.9867,81.4734 27.4867,82.4734 28,83.5C 28.4996,76.5079 28.6663,69.5079 28.5,62.5C 29.3138,64.631 29.8138,66.9644 30,69.5C 30.1683,50.6622 30.6683,31.9955 31.5,13.5 Z"/></g>
<g><path style="opacity:1" fill="#3279f5" d="M 32.5,95.5 C 32.5,96.1667 32.5,96.8333 32.5,97.5C 32.6309,98.3764 32.2975,99.0431 31.5,99.5C 30.0569,96.9235 28.3902,94.5901 26.5,92.5C 26.5,92.1667 26.5,91.8333 26.5,91.5C 26.5,90.5 26.5,89.5 26.5,88.5C 26.5,87.1667 26.5,85.8333 26.5,84.5C 27.5,84.5 28.5,84.5 29.5,84.5C 29.3345,80.4862 29.5012,76.4862 30,72.5C 30.3333,73.1667 30.6667,73.8333 31,74.5C 31.1715,81.6787 31.6715,88.6787 32.5,95.5 Z"/></g>
<g><path style="opacity:0.525" fill="#9fc3f7" d="M 23.5,84.5 C 24.8571,85.5903 25.8571,86.9236 26.5,88.5C 26.5,89.5 26.5,90.5 26.5,91.5C 24.9348,89.4907 23.9348,87.1573 23.5,84.5 Z"/></g>
<g><path style="opacity:1" fill="#357af2" d="M 62.5,90.5 C 61.1286,91.7868 59.2953,92.4535 57,92.5C 54.7047,92.4535 52.8714,91.7868 51.5,90.5C 55.2684,89.2134 58.9351,89.2134 62.5,90.5 Z"/></g>
<g><path style="opacity:1" fill="#6a96ec" d="M 51.5,90.5 C 52.8714,91.7868 54.7047,92.4535 57,92.5C 59.2953,92.4535 61.1286,91.7868 62.5,90.5C 67.5262,91.8608 70.1928,95.1941 70.5,100.5C 68.691,98.9009 67.3576,96.9009 66.5,94.5C 66.1775,97.7047 66.1775,101.038 66.5,104.5C 65.8173,101.484 64.8173,98.4841 63.5,95.5C 63.0269,94.0937 62.0269,93.427 60.5,93.5C 53.0922,93.4083 49.5922,97.0749 50,104.5C 49.5,105 49,105.5 48.5,106C 44.1667,106.667 39.8333,106.667 35.5,106C 34.5842,105.722 33.9175,105.222 33.5,104.5C 38.5,104.5 43.5,104.5 48.5,104.5C 48.6633,102.143 48.4966,99.8098 48,97.5C 47.0656,98.8584 46.2323,100.192 45.5,101.5C 45.6601,96.8475 47.6601,93.1808 51.5,90.5 Z"/></g>
<g><path style="opacity:0.31" fill="#bbd4f9" d="M 60.5,93.5 C 62.0269,93.427 63.0269,94.0937 63.5,95.5C 61.9731,95.573 60.9731,94.9063 60.5,93.5 Z"/></g>
<g><path style="opacity:1" fill="#437fee" d="M 70.5,100.5 C 73.6977,101.7 77.031,101.7 80.5,100.5C 82.0481,100.821 82.7148,101.821 82.5,103.5C 82.3893,104.117 82.056,104.617 81.5,105C 76.3158,105.816 71.3158,105.65 66.5,104.5C 66.1775,101.038 66.1775,97.7047 66.5,94.5C 67.3576,96.9009 68.691,98.9009 70.5,100.5 Z"/></g>
<g><path style="opacity:1" fill="#6693ed" d="M 26.5,92.5 C 28.3902,94.5901 30.0569,96.9235 31.5,99.5C 32.2975,99.0431 32.6309,98.3764 32.5,97.5C 33.3164,99.1436 34.6498,100.31 36.5,101C 39.4816,101.498 42.4816,101.665 45.5,101.5C 41.2878,102.997 37.1211,102.664 33,100.5C 32.805,101.819 32.9717,103.153 33.5,104.5C 31.9826,104.489 30.8159,103.823 30,102.5C 28.8304,99.1478 27.6637,95.8145 26.5,92.5 Z"/></g>
<g><path style="opacity:1" fill="#82aaf5" d="M 86.5,52.5 C 87.6612,67.6611 87.8279,82.9945 87,98.5C 86.3881,101.115 84.8881,102.781 82.5,103.5C 82.7148,101.821 82.0481,100.821 80.5,100.5C 80.7828,99.7109 81.2828,99.0442 82,98.5C 82.4997,90.8406 82.6664,83.1739 82.5,75.5C 83.1666,83.0104 83.8333,90.6771 84.5,98.5C 85.2811,97.2713 85.7811,95.938 86,94.5C 86.4999,80.504 86.6666,66.504 86.5,52.5 Z"/></g>
<g><path style="opacity:1" fill="#3078f8" d="M 33.5,104.5 C 32.9717,103.153 32.805,101.819 33,100.5C 37.1211,102.664 41.2878,102.997 45.5,101.5C 46.2323,100.192 47.0656,98.8584 48,97.5C 48.4966,99.8098 48.6633,102.143 48.5,104.5C 43.5,104.5 38.5,104.5 33.5,104.5 Z"/></g>
</svg>
